<?xml version="1.0" encoding="utf-8"?>
<!-- Generator: Adobe Illustrator 27.5.0, SVG Export Plug-In . SVG Version: 6.00 Build 0)  -->
<svg version="1.1" id="Layer_1" xmlns="http://www.w3.org/2000/svg" xmlns:xlink="http://www.w3.org/1999/xlink" x="0px" y="0px"
	 viewBox="0 0 20 20" style="enable-background:new 0 0 20 20;" xml:space="preserve">
<style type="text/css">
	.st0{fill:#010101;}
</style>
<path class="st0" d="M10,0C4.49,0,0,4.49,0,10c0,5.51,4.49,10,10,10s10-4.49,10-10C20,4.49,15.51,0,10,0z M14.45,14.67l-0.35,0.37
	c-0.11,0.12-0.25,0.22-0.4,0.3c-0.43,0.22-1.36,0.57-2.23,0.19c-0.34-0.15-0.76-0.34-1.25-0.64C9.7,14.56,9.11,14.1,8.5,13.45
	c-0.55-0.65-1.01-1.26-1.38-1.83l0-0.01c-0.36-0.58-0.72-1.26-1.06-2.03C5.72,8.75,5.57,8.02,5.5,7.41C5.43,6.84,5.44,6.37,5.45,6
	c0.03-0.95,0.74-1.63,1.12-1.93c0.13-0.1,0.29-0.18,0.44-0.23L7.5,3.68c0.15-0.05,0.3-0.01,0.36,0.1c0.37,0.7,0.68,1.87,0.84,2.53
	c0.06,0.25-0.13,0.56-0.43,0.71C8.07,7.1,7.85,7.23,7.6,7.39c-0.89,0.57-0.34,1.3-0.34,1.3l1.24,2.05l1.32,2
	c0,0,0.42,0.82,1.32,0.25c0.25-0.16,0.46-0.31,0.62-0.43c0.26-0.21,0.62-0.25,0.82-0.09c0.53,0.42,1.45,1.21,1.92,1.84
	C14.59,14.4,14.56,14.55,14.45,14.67z"/>
</svg>
