<?xml version="1.0" encoding="utf-8"?>
<!-- Generator: Adobe Illustrator 27.5.0, SVG Export Plug-In . SVG Version: 6.00 Build 0)  -->
<svg version="1.1" id="Layer_1" xmlns="http://www.w3.org/2000/svg" xmlns:xlink="http://www.w3.org/1999/xlink" x="0px" y="0px"
	 viewBox="0 0 20 20" style="enable-background:new 0 0 20 20;" xml:space="preserve">
<style type="text/css">
	.st0{fill:#010101;}
</style>
<g>
	<path class="st0" d="M9.94,0c-5.51,0-10,4.49-10,10c0,5.51,4.49,10,10,10s10-4.49,10-10C19.94,4.49,15.45,0,9.94,0z M14.89,11.41
		c-0.24,0.47-0.54,0.82-0.9,1.02l-0.04,0.02c-0.34,0.19-0.7,0.29-1.06,0.29c-0.34,0-0.66-0.08-0.95-0.24
		c-0.29-0.16-0.47-0.36-0.57-0.61L11.3,11.7l-0.13,0.16c-0.24,0.29-0.52,0.52-0.83,0.66C9.69,12.83,9,12.81,8.4,12.46
		c-0.32-0.19-0.59-0.47-0.79-0.83c-0.2-0.37-0.3-0.83-0.3-1.37c0-0.78,0.14-1.41,0.43-1.85c0.28-0.45,0.66-0.77,1.1-0.95
		C9.3,7.25,9.79,7.16,10.3,7.16c0.31,0,0.63,0.03,0.95,0.09c0.13,0.02,0.26,0.05,0.38,0.08c0.27,0.06,0.46,0.3,0.46,0.58v3.07
		c0,0.27,0.08,0.48,0.24,0.62c0.15,0.14,0.35,0.21,0.57,0.21c0.36,0,0.66-0.12,0.91-0.34c0.23-0.22,0.41-0.51,0.53-0.86
		c0.12-0.35,0.17-0.72,0.17-1.1c0-0.56-0.12-1.09-0.35-1.59c-0.23-0.5-0.55-0.94-0.96-1.32c-0.41-0.38-0.88-0.68-1.42-0.9
		c-0.02-0.01-0.05-0.02-0.07-0.03l-0.02-0.01c-0.05-0.02-0.1-0.03-0.14-0.05c-0.04-0.01-0.08-0.03-0.11-0.04
		c-0.04-0.01-0.08-0.02-0.11-0.03c-0.04-0.01-0.08-0.02-0.11-0.03c-0.04-0.01-0.08-0.02-0.11-0.03c-0.03-0.01-0.06-0.01-0.08-0.02
		C10.47,5.32,9.89,5.3,9.33,5.38C9.26,5.39,9.19,5.41,9.11,5.42c-0.03,0.01-0.07,0.01-0.1,0.02l-0.02,0
		C8.85,5.48,8.7,5.52,8.56,5.57C8.5,5.59,8.45,5.61,8.39,5.63c-0.34,0.13-0.67,0.3-0.98,0.51C7.38,6.16,7.33,6.2,7.29,6.23
		C7.25,6.26,7.21,6.29,7.17,6.32C7.13,6.34,7.1,6.37,7.07,6.4C6.95,6.49,6.84,6.59,6.74,6.69C6.31,7.11,5.97,7.6,5.73,8.17
		C5.55,8.59,5.44,9.04,5.39,9.51l0,0.02c0,0.04-0.01,0.08-0.01,0.11C5.37,9.76,5.37,9.88,5.37,10c0,0.25,0.02,0.5,0.06,0.74
		l0.01,0.09c0.06,0.37,0.17,0.73,0.32,1.06c0.25,0.57,0.6,1.07,1.04,1.49c0.25,0.24,0.52,0.45,0.81,0.62L7.62,14
		c0.05,0.03,0.11,0.06,0.16,0.09c0.69,0.38,1.47,0.58,2.26,0.58c0.04,0,0.08,0,0.12,0l0,0l0.07,0l0,0c0.84-0.03,1.65-0.3,2.36-0.76
		c0.48-0.03,0.96-0.11,1.43-0.24c-1.03,1.11-2.46,1.75-3.99,1.75c-1.63,0-3.16-0.72-4.2-1.99c-0.01-0.01-0.01-0.01-0.02-0.03
		c-0.04-0.04-0.07-0.09-0.11-0.14c-0.02-0.02-0.03-0.04-0.05-0.06c-0.03-0.04-0.06-0.08-0.09-0.12c-0.1-0.14-0.19-0.29-0.27-0.44
		c-0.05-0.08-0.08-0.15-0.12-0.22c-0.02-0.04-0.04-0.09-0.06-0.13l0-0.01c-0.01-0.01-0.01-0.03-0.02-0.04
		c-0.02-0.05-0.05-0.11-0.07-0.16c-0.02-0.05-0.04-0.11-0.06-0.16l-0.01-0.02c-0.02-0.05-0.04-0.1-0.06-0.16L4.9,11.74
		c-0.02-0.06-0.04-0.12-0.06-0.18c-0.02-0.06-0.03-0.11-0.05-0.17l-0.01-0.04c-0.01-0.04-0.02-0.09-0.03-0.14l-0.01-0.07
		C4.73,11.1,4.72,11.05,4.71,11c-0.01-0.06-0.02-0.12-0.03-0.18l0-0.02c-0.01-0.05-0.01-0.11-0.02-0.17c0-0.01,0-0.02,0-0.03
		c-0.01-0.06-0.01-0.12-0.02-0.18C4.62,10.28,4.62,10.14,4.62,10c0-0.05,0-0.09,0-0.14c0.02-0.88,0.26-1.75,0.69-2.52
		c0.02-0.03,0.04-0.07,0.06-0.1c0.04-0.06,0.08-0.13,0.12-0.2c0.04-0.06,0.09-0.13,0.13-0.19C5.65,6.82,5.67,6.79,5.7,6.76
		c0.02-0.02,0.04-0.05,0.06-0.08c0.03-0.04,0.06-0.07,0.08-0.1l0.05-0.06C5.92,6.48,5.95,6.44,5.99,6.4
		C6.12,6.25,6.26,6.12,6.4,5.99c0.05-0.05,0.11-0.1,0.17-0.15c0.07-0.05,0.13-0.11,0.2-0.16c0.87-0.66,1.9-1.04,2.99-1.09
		c0.04,0,0.09,0,0.13,0c0.12,0,0.25,0,0.37,0c0.52,0.02,1.05,0.13,1.57,0.32c0.61,0.21,1.18,0.53,1.69,0.96
		c0.06,0.05,0.12,0.1,0.19,0.17c0.02,0.02,0.04,0.04,0.06,0.06l0.18,0.18c0.03,0.03,0.06,0.06,0.09,0.1
		c0.04,0.05,0.08,0.09,0.12,0.14c0.02,0.02,0.03,0.04,0.05,0.06c0.03,0.03,0.05,0.07,0.08,0.1c0.18,0.23,0.34,0.48,0.47,0.75l0,0
		c0.31,0.6,0.47,1.3,0.47,2.08C15.25,10.28,15.13,10.93,14.89,11.41z"/>
	<path class="st0" d="M10.58,8.12c-0.13-0.01-0.26-0.02-0.39-0.02c-0.28,0-0.56,0.06-0.83,0.17C9.08,8.39,8.85,8.61,8.67,8.94
		C8.5,9.26,8.41,9.73,8.41,10.33c0,0.49,0.12,0.86,0.36,1.1c0.24,0.24,0.52,0.36,0.83,0.36c0.34,0,0.67-0.16,0.97-0.48
		c0.3-0.31,0.46-0.78,0.46-1.39V8.19l-0.1-0.02C10.83,8.15,10.71,8.13,10.58,8.12z"/>
</g>
</svg>
